<?xml version="1.0" encoding="UTF-8"?>
<svg id="Layer_1" xmlns="http://www.w3.org/2000/svg" baseProfile="tiny" version="1.2" viewBox="0 0 288 432">
  <path d="M192.74,0c27.77,6.09,48.01,26.26,57.48,54,7.88,23.1,16.13,45.01,20.76,69.08,7.34,38.1,6.98,74.88-2.2,112.8l-34.4,142.04c-6.61,27.3-22.41,48.26-50.38,54.07h-80.44c-27.58-5.86-43.32-26.72-49.94-54.05L19.82,238.33C2.59,167.21,15.17,111.39,41.43,45.41,50.99,21.38,71.62,5.7,95.58,0h97.16ZM177.48,407.58c16.58-.08,28.31-14.29,31.99-29.23l31.77-129.18c7.22-29.35,12.3-58.57,10.28-88.64s-8.63-58.34-19.77-86.23l-5.88-16.5c-6.06-17.01-20.72-33-40.35-33.13l-83.75-.56c-19.03,3.91-32.75,14.86-39.18,32.58l-10.39,28.6c-8.9,24.51-13.86,48.99-15.69,75.27-2.07,29.74,2.92,58.81,10.06,87.87l31.88,129.84c3.87,15.75,14.82,26.56,30.99,29.64l68.04-.32h0Z"/>
  <path d="M131.09,278.4l-.21-54.41c-16.17,9.75-26.33,29.5-39.65,18.78-4.1-3.3-5.37-12.85-.4-17.04l34.71-29.28-36.22-28.58c-5.98-4.72-6.89-11.77-2.87-16.9,4.28-5.45,11.23-7.09,17.11-2.48l27.25,21.43.32-56.72c.03-4.87,4.03-8.52,7.43-10.3,4.4-2.31,9.21-.76,12.95,2.71l47.59,44.18c3.69,4.56,4.5,11.84-.47,16.07l-35.43,30.13,36.62,29.12c3.06,2.43,4.63,7.6,4.18,11.06-.52,4-3.45,6.39-6.62,9.22l-45.37,40.53c-3.74,3.34-8.14,5.53-12.8,3.45-3.69-1.64-8.11-5.45-8.13-10.99v.02ZM171.72,156.8l-16.7-14.67.26,28.99c6.97-5.2,10.89-8.76,16.43-14.32h.01ZM173.22,234.63c-6.91-5.65-10.7-8.72-17.88-13.77-.45,10.73-.44,18.57-.02,29.71l17.9-15.94h0Z"/>
</svg>